<svg width="756" height="144" viewBox="0 0 756 144" fill="none" xmlns="http://www.w3.org/2000/svg">
<path d="M304.1 53.1802L280.37 117.5C279.775 119.133 278.694 120.544 277.273 121.543C275.851 122.543 274.158 123.083 272.42 123.09C270.687 123.084 268.998 122.549 267.578 121.555C266.159 120.561 265.078 119.156 264.48 117.53L243 60.0002C242.952 59.8764 242.867 59.7699 242.757 59.6949C242.648 59.6199 242.518 59.5798 242.385 59.5798C242.252 59.5798 242.122 59.6199 242.012 59.6949C241.903 59.7699 241.818 59.8764 241.77 60.0002L220 117.55C219.398 119.172 218.315 120.571 216.896 121.561C215.477 122.551 213.79 123.085 212.06 123.09V123.09C210.311 123.092 208.605 122.554 207.173 121.55C205.742 120.546 204.654 119.125 204.06 117.48L180.33 53.1802C180.018 52.3531 179.91 51.4631 180.015 50.5854C180.121 49.7078 180.436 48.8684 180.934 48.1384C181.433 47.4085 182.1 46.8094 182.879 46.3919C183.658 45.9744 184.526 45.7509 185.41 45.7402H185.7C186.817 45.7456 187.904 46.095 188.815 46.741C189.726 47.387 190.416 48.2981 190.79 49.3502L212.09 108.21C212.134 108.338 212.217 108.45 212.327 108.529C212.437 108.607 212.569 108.65 212.705 108.65C212.841 108.65 212.973 108.607 213.083 108.529C213.193 108.45 213.276 108.338 213.32 108.21L235.43 49.2802C235.81 48.2425 236.498 47.3461 237.403 46.7114C238.308 46.0768 239.385 45.7344 240.49 45.7302H244.21C245.316 45.7337 246.395 46.0758 247.302 46.7104C248.208 47.345 248.898 48.2418 249.28 49.2802L271.38 108.21C271.424 108.338 271.507 108.45 271.617 108.529C271.727 108.607 271.859 108.65 271.995 108.65C272.131 108.65 272.263 108.607 272.373 108.529C272.483 108.45 272.566 108.338 272.61 108.21L293.91 49.3502C294.286 48.2973 294.977 47.3859 295.89 46.74C296.803 46.094 297.892 45.7449 299.01 45.7402V45.7402C299.895 45.7493 300.764 45.9717 301.545 46.3885C302.325 46.8053 302.993 47.4042 303.493 48.1344C303.992 48.8646 304.309 49.7046 304.414 50.583C304.52 51.4614 304.412 52.3524 304.1 53.1802V53.1802Z" fill="#C3A769"/>
<path d="M323.19 26.3C323.19 22.04 326.69 18.78 331.3 18.78C335.91 18.78 339.42 22.04 339.42 26.3C339.42 30.56 335.92 33.82 331.3 33.82C326.68 33.82 323.19 30.42 323.19 26.3ZM331.3 123.09C330.541 123.085 329.791 122.93 329.093 122.635C328.394 122.339 327.76 121.909 327.228 121.368C326.696 120.828 326.275 120.187 325.991 119.484C325.706 118.781 325.563 118.029 325.57 117.27V51.56C325.559 50.0288 326.157 48.5559 327.231 47.4647C328.305 46.3735 329.769 45.7532 331.3 45.74V45.74C332.826 45.7611 334.282 46.3849 335.35 47.4752C336.417 48.5655 337.011 50.0339 337 51.56V117.27C337.011 118.796 336.417 120.265 335.35 121.355C334.282 122.445 332.826 123.069 331.3 123.09V123.09Z" fill="#C3A769"/>
<path d="M449.5 84.4901C449.5 109.49 433.56 125.93 408.1 125.93C392.23 125.93 379.73 119.71 372.51 109.93C372.426 109.817 372.309 109.734 372.175 109.693C372.041 109.651 371.897 109.653 371.765 109.699C371.632 109.745 371.517 109.832 371.437 109.947C371.358 110.062 371.316 110.2 371.32 110.34V119C371.324 119.538 371.222 120.072 371.019 120.571C370.817 121.07 370.518 121.525 370.14 121.908C369.762 122.292 369.313 122.597 368.817 122.807C368.321 123.016 367.788 123.126 367.25 123.13H363.92C363.382 123.126 362.849 123.016 362.353 122.807C361.857 122.597 361.407 122.292 361.03 121.908C360.652 121.525 360.353 121.07 360.151 120.571C359.948 120.072 359.846 119.538 359.85 119V22.2001C359.846 21.6616 359.948 21.1277 360.151 20.6288C360.353 20.1298 360.652 19.6756 361.03 19.2921C361.407 18.9086 361.857 18.6033 362.353 18.3936C362.849 18.1839 363.382 18.074 363.92 18.0701H367.25C367.788 18.074 368.321 18.1839 368.817 18.3936C369.313 18.6033 369.762 18.9086 370.14 19.2921C370.518 19.6756 370.817 20.1298 371.019 20.6288C371.222 21.1277 371.324 21.6616 371.32 22.2001V58.5201C371.319 58.6594 371.361 58.7957 371.442 58.9093C371.523 59.0229 371.638 59.108 371.77 59.1524C371.902 59.1968 372.045 59.1982 372.178 59.1565C372.311 59.1148 372.427 59.032 372.51 58.9201C379.73 49.1201 392.23 42.9201 408.1 42.9201C433.56 42.9101 449.5 59.5101 449.5 84.4901ZM437.89 84.4901C437.89 64.4901 426.14 53.2701 405.16 53.2701C391.04 53.2701 379.16 58.3701 371.32 72.1401V96.6901C379.15 110.46 391.04 115.57 405.16 115.57C426.14 115.57 437.89 104.36 437.89 84.4901Z" fill="#C3A769"/>
<path d="M548.5 100.42C548.5 114.2 534.78 125.31 509.01 125.31C494.807 125.472 480.937 121.003 469.5 112.58C468.912 112.144 468.427 111.585 468.078 110.942C467.73 110.298 467.527 109.586 467.484 108.855C467.442 108.125 467.559 107.394 467.83 106.714C468.101 106.034 468.517 105.421 469.05 104.92C469.898 104.118 471.005 103.645 472.171 103.586C473.337 103.527 474.486 103.887 475.41 104.6C484.53 111.5 495.2 115.74 509.28 115.74C524.94 115.74 537.28 110.82 537.28 101.54C537.28 91.98 526.05 89.45 506.79 87.76C486.79 86.08 467.85 81.71 467.85 65.97C467.85 50.97 484.48 42.76 506.79 42.76C518.463 42.8592 529.882 46.1777 539.79 52.35C540.415 52.7414 540.945 53.2662 541.344 53.8867C541.742 54.5072 541.998 55.2081 542.094 55.9393C542.189 56.6704 542.122 57.4136 541.897 58.1156C541.671 58.8176 541.293 59.4611 540.79 60L540.53 60.29C539.719 61.1612 538.617 61.7053 537.433 61.8196C536.248 61.9338 535.062 61.6102 534.1 60.91C527.3 56.03 518.2 52.45 506.28 52.33C494.78 52.19 479.12 55 479.12 65.26C479.12 74.82 492.7 76.65 509.19 77.92C531.87 79.75 548.5 85.51 548.5 100.42Z" fill="#C3A769"/>
<path d="M566.5 83.32C566.5 58.49 583.22 42.76 611.5 42.76C639.78 42.76 656.5 58.49 656.5 83.32C656.5 108.15 639.78 123.74 611.5 123.74C583.22 123.74 566.5 108.15 566.5 83.32ZM645.22 83.32C645.22 62.91 630.81 52.83 611.5 52.83C592.19 52.83 577.78 62.91 577.78 83.32C577.78 103.73 592.19 113.67 611.5 113.67C630.81 113.67 645.22 103.6 645.22 83.32Z" fill="#C3A769"/>
<path d="M674.5 117.12V49.9102C674.496 49.3586 674.601 48.8117 674.808 48.3006C675.016 47.7895 675.322 47.3243 675.709 46.9315C676.096 46.5387 676.557 46.226 677.065 46.0113C677.573 45.7966 678.118 45.6841 678.67 45.6802H681.55C682.102 45.6828 682.648 45.7944 683.157 46.0086C683.665 46.2229 684.127 46.5355 684.514 46.9286C684.902 47.3216 685.208 47.7874 685.414 48.299C685.621 48.8107 685.725 49.3582 685.72 49.9102V59.1902C685.715 59.329 685.756 59.4656 685.836 59.5793C685.915 59.693 686.03 59.7778 686.162 59.8207C686.294 59.8636 686.437 59.8623 686.568 59.8171C686.699 59.7719 686.812 59.6853 686.89 59.5702C694.06 49.2502 706.15 42.9102 721.3 42.9102C744.42 42.9102 755.5 57.9102 755.5 78.5902V117.12C755.504 117.672 755.399 118.219 755.192 118.73C754.984 119.241 754.678 119.706 754.291 120.099C753.904 120.492 753.443 120.804 752.935 121.019C752.427 121.234 751.882 121.346 751.33 121.35H748.45C747.898 121.346 747.353 121.234 746.845 121.019C746.337 120.804 745.876 120.492 745.489 120.099C745.102 119.706 744.796 119.241 744.588 118.73C744.381 118.219 744.276 117.672 744.28 117.12V70.0002C744.316 66.58 743.22 63.2439 741.161 60.5124C739.103 57.7809 736.198 55.8075 732.9 54.9002C712.73 49.6602 695.25 55.3802 686.19 72.9002C685.874 73.5191 685.713 74.2053 685.72 74.9002V117.11C685.725 117.662 685.621 118.21 685.414 118.721C685.208 119.233 684.902 119.699 684.514 120.092C684.127 120.485 683.665 120.797 683.157 121.012C682.648 121.226 682.102 121.338 681.55 121.34H678.67C677.558 121.332 676.494 120.883 675.712 120.092C674.931 119.301 674.495 118.232 674.5 117.12Z" fill="#C3A769"/>
<path d="M141.47 66.0601L78.12 2.53011C76.4945 0.907604 74.2917 -0.00366211 71.995 -0.00366211C69.6983 -0.00366211 67.4955 0.907604 65.87 2.53011L2.52999 66.0601C0.911756 67.6818 0.00292969 69.8792 0.00292969 72.1701C0.00292969 74.4611 0.911756 76.6585 2.52999 78.2801L65.88 141.47C67.5051 143.09 69.7058 143.999 72 143.999C74.2942 143.999 76.4949 143.09 78.12 141.47L141.47 78.2801C143.088 76.6585 143.997 74.4611 143.997 72.1701C143.997 69.8792 143.088 67.6818 141.47 66.0601V66.0601ZM70 6.60011C70.5392 6.08656 71.2553 5.80011 72 5.80011C72.7446 5.80011 73.4608 6.08656 74 6.60011L137.34 70.1301C137.492 70.3023 137.619 70.494 137.72 70.7001L109.07 85.0001C108.529 85.2714 107.917 85.3662 107.32 85.2711C106.722 85.176 106.17 84.8959 105.74 84.4701L78.12 56.9201C76.4949 55.3007 74.2942 54.3913 72 54.3913C69.7058 54.3913 67.5051 55.3007 65.88 56.9201L38.26 84.4801C37.8302 84.9059 37.2777 85.186 36.6803 85.2811C36.0829 85.3762 35.4707 85.2814 34.93 85.0101L6.23999 70.7001C6.34065 70.494 6.46845 70.3023 6.61999 70.1301L70 6.60011Z" fill="#C3A769"/>
</svg>
