<svg xmlns="http://www.w3.org/2000/svg" viewBox="0 0 755.5 144"><defs><style>.cls-1{fill:#fff;}</style></defs><title>Wibson Logo White</title><g id="Layer_2" data-name="Layer 2"><g id="Layer_1-2" data-name="Layer 1"><path class="cls-1" d="M304.1,53.18,280.37,117.5a8.5,8.5,0,0,1-7.95,5.59h0a8.49,8.49,0,0,1-7.94-5.56L243,60a.66.66,0,0,0-1.23,0L220,117.55a8.5,8.5,0,0,1-7.94,5.54h0a8.5,8.5,0,0,1-8-5.61l-23.73-64.3a5.5,5.5,0,0,1,5.08-7.44h.29a5.43,5.43,0,0,1,5.09,3.61l21.3,58.86a.65.65,0,0,0,1.23,0l22.11-58.93a5.41,5.41,0,0,1,5.06-3.55h3.72a5.42,5.42,0,0,1,5.07,3.55l22.1,58.93a.65.65,0,0,0,1.23,0l21.3-58.86a5.44,5.44,0,0,1,5.1-3.61h0A5.5,5.5,0,0,1,304.1,53.18Z"/><path class="cls-1" d="M323.19,26.3c0-4.26,3.5-7.52,8.11-7.52s8.12,3.26,8.12,7.52-3.5,7.52-8.12,7.52S323.19,30.42,323.19,26.3Zm8.11,96.79h0a5.77,5.77,0,0,1-5.73-5.82V51.56a5.78,5.78,0,0,1,5.73-5.82h0A5.78,5.78,0,0,1,337,51.56v65.71A5.78,5.78,0,0,1,331.3,123.09Z"/><path class="cls-1" d="M449.5,84.49c0,25-15.94,41.44-41.4,41.44-15.87,0-28.37-6.22-35.59-16a.66.66,0,0,0-1.19.41V119a4.1,4.1,0,0,1-4.07,4.13h-3.33a4.1,4.1,0,0,1-4.07-4.13V22.2a4.1,4.1,0,0,1,4.07-4.13h3.33a4.1,4.1,0,0,1,4.07,4.13V58.52a.66.66,0,0,0,1.19.4c7.22-9.8,19.72-16,35.59-16C433.56,42.91,449.5,59.51,449.5,84.49Zm-11.61,0c0-20-11.75-31.22-32.73-31.22-14.12,0-26,5.1-33.84,18.87V96.69c7.83,13.77,19.72,18.88,33.84,18.88C426.14,115.57,437.89,104.36,437.89,84.49Z"/><path class="cls-1" d="M548.5,100.42c0,13.78-13.72,24.89-39.49,24.89a65.37,65.37,0,0,1-39.51-12.73,5,5,0,0,1-.45-7.66h0a4.9,4.9,0,0,1,6.36-.32c9.12,6.9,19.79,11.14,33.87,11.14,15.66,0,28-4.92,28-14.2,0-9.56-11.23-12.09-30.49-13.78-20-1.68-38.94-6.05-38.94-21.79,0-15,16.63-23.21,38.94-23.21a63.43,63.43,0,0,1,33,9.59,5,5,0,0,1,1,7.65l-.26.29a4.87,4.87,0,0,1-6.43.62c-6.8-4.88-15.9-8.46-27.82-8.58-11.5-.14-27.16,2.67-27.16,12.93,0,9.56,13.58,11.39,30.07,12.66C531.87,79.75,548.5,85.51,548.5,100.42Z"/><path class="cls-1" d="M566.5,83.32c0-24.83,16.72-40.56,45-40.56s45,15.73,45,40.56-16.72,40.42-45,40.42S566.5,108.15,566.5,83.32Zm78.72,0c0-20.41-14.41-30.49-33.72-30.49s-33.72,10.08-33.72,30.49,14.41,30.35,33.72,30.35S645.22,103.6,645.22,83.32Z"/><path class="cls-1" d="M674.5,117.12V49.91a4.2,4.2,0,0,1,4.17-4.23h2.88a4.19,4.19,0,0,1,4.17,4.23v9.28a.64.64,0,0,0,1.17.38c7.17-10.32,19.26-16.66,34.41-16.66,23.12,0,34.2,15,34.2,35.68v38.53a4.2,4.2,0,0,1-4.17,4.23h-2.88a4.2,4.2,0,0,1-4.17-4.23V70a15.49,15.49,0,0,0-11.38-15.1c-20.17-5.24-37.65.48-46.71,18a4.3,4.3,0,0,0-.47,2v42.21a4.19,4.19,0,0,1-4.17,4.23h-2.88A4.2,4.2,0,0,1,674.5,117.12Z"/><path class="cls-1" d="M141.47,66.06,78.12,2.53a8.67,8.67,0,0,0-12.25,0L2.53,66.06a8.65,8.65,0,0,0,0,12.22l63.35,63.19a8.67,8.67,0,0,0,12.24,0l63.35-63.19A8.65,8.65,0,0,0,141.47,66.06ZM70,6.6A2.9,2.9,0,0,1,74,6.6l63.34,63.53a2.57,2.57,0,0,1,.38.57L109.07,85a2.89,2.89,0,0,1-3.33-.53L78.12,56.92a8.67,8.67,0,0,0-12.24,0L38.26,84.48a2.89,2.89,0,0,1-3.33.53L6.24,70.7a2.57,2.57,0,0,1,.38-.57Z"/></g></g></svg>